# xmcd
#
# Track frame offsets: 
#        150
#        13041
#        27338
#        41576
#        53504
#        66069
#        79797
#        93541
#        102636
#        115021
#        126183
#        138858
#        151365
#        164026
#        175767
#        189045
#        202291
#
# Disc length: 2874 seconds
#
# Revision: 1
# Processed by: cddbd v1.5.2PL0 Copyright (c) Steve Scherf et al.
# Submitted via: ExactAudioCopy v1.0b3
#
DISCID=e30b3811
DTITLE=Caro Emerald presents - Drum Rolls and Heart Breaks [CD1)
DYEAR=2012
DGENRE=Swing
TTITLE0=Jimmy Dorsey And His Orchestra with Helen O'Connell - Man, Tha
TTITLE0=t's Groovy
TTITLE1=Gene Krupa - Drum Boogie
TTITLE2=Stan Kenton and Anita O'Day - And Her Tears Flowed Like Wine
TTITLE3=Xavier Cugat - Green Eyes
TTITLE4=Edmundo Ros and His Orchestra - Sorta On The Border
TTITLE5=Enric Madriguera - One Night In Brazil
TTITLE6=The Andrews Sisters with Bing Crosby - Pistol Packin' Mama
TTITLE7=The DeCastro Sisters - Teach Me Tonight Cha Cha
TTITLE8=Dean Martin - Sway
TTITLE9=Shirley Bassey - Kiss Me Honey Honey (Kiss Me)
TTITLE10=Della Reese - Why Don't You Do Right
TTITLE11=Jack Costanzo - I Love Paris
TTITLE12=Perez Prado - Mambo No.5 (Live)
TTITLE13=Les Brown and His Orchestra - I've Got The Sun In The Morning
TTITLE14=Tex Williams - Smoke! Smoke! Smoke! (That Cigarette)
TTITLE15=Eartha Kitt - Mambo De Paree
TTITLE16=The Andrews Sisters - Aurora
EXTD=
EXTT0=
EXTT1=
EXTT2=
EXTT3=
EXTT4=
EXTT5=
EXTT6=
EXTT7=
EXTT8=
EXTT9=
EXTT10=
EXTT11=
EXTT12=
EXTT13=
EXTT14=
EXTT15=
EXTT16=
PLAYORDER=
